<svg version="1.1" id="Layer_1" xmlns="http://www.w3.org/2000/svg" x="0px" y="0px"
     width="100%" viewBox="0 0 64 54" enable-background="new 0 0 64 54" xml:space="preserve">

    <path fill="#32cd32" opacity="1.000000" stroke="none"
          d="
M21.550020,1.000000 
	C26.533657,4.286976 30.910643,9.995528 35.637177,10.301327 
	C42.984318,10.776674 46.091572,15.015854 49.002789,19.744259 
	C52.702572,25.753441 57.247589,29.776131 64.667969,30.316673 
	C65.000000,33.692909 65.000000,37.385818 65.000000,41.539364 
	C61.000217,45.407749 56.482475,47.351719 51.192566,48.160149 
	C47.608376,48.707893 47.554241,47.650642 48.487823,45.026268 
	C52.186539,34.628883 51.314465,31.461260 41.899231,24.468760 
	C33.386040,18.146187 24.584513,12.212338 16.049578,5.917991 
	C14.829478,5.018190 14.394854,3.053310 13.298353,1.290678 
	C15.700013,1.000000 18.400026,1.000000 21.550020,1.000000 
z"/>
    <path fill="#32cd32" opacity="1.000000" stroke="none"
          d="
M1.000000,17.428463 
	C13.657414,22.999043 26.423615,28.784542 38.899406,35.140106 
	C42.216309,36.829838 44.642021,40.268963 47.476906,42.904881 
	C47.196854,43.367947 46.916801,43.831013 46.636745,44.294075 
	C34.559731,40.125515 22.308743,36.380508 10.510045,31.534340 
	C6.896482,30.050114 4.523350,25.545883 1.291088,22.712315 
	C1.000000,21.285643 1.000000,19.571283 1.000000,17.428463 
z"/>
    <path fill="#32cd32" opacity="1.000000" stroke="none"
          d="
M27.463184,55.000000 
	C26.384672,53.569149 25.769344,52.138302 25.180393,50.768787 
	C28.760519,51.171486 32.478893,51.434204 36.129341,52.080566 
	C37.497578,52.322838 38.707813,53.457466 39.995041,54.592621 
	C35.975456,55.000000 31.950911,55.000000 27.463184,55.000000 
z"/>
    <path fill="#32cd32" opacity="1.000000" stroke="none"
          d="
M7.321235,16.817972 
	C5.387800,14.973561 3.726528,13.371409 1.146974,10.883654 
	C4.293573,10.365738 6.379572,10.022392 8.531152,9.668252 
	C8.531152,8.768314 8.531152,7.656351 8.531152,5.816329 
	C13.888880,9.048476 18.621365,11.816650 23.263906,14.728235 
	C28.025692,17.714607 33.008698,20.465275 37.323608,24.013765 
	C41.516102,27.461584 44.983944,31.790567 48.769997,35.732613 
	C48.338009,36.176907 47.906021,36.621201 47.474033,37.065498 
	C44.482887,35.094177 41.671982,32.738705 38.462460,31.232815 
	C32.101299,28.248192 25.467674,25.849771 19.049341,22.979469 
	C15.131798,21.227531 11.405560,19.047813 7.321235,16.817972 
z"/>
    <path fill="#32cd32" opacity="1.000000" stroke="none"
          d="
M19.027744,39.001602 
	C22.423916,39.669731 25.535166,39.981823 28.335243,41.084263 
	C32.789810,42.838093 37.036896,45.118885 42.490536,47.707932 
	C29.588840,51.466114 16.042885,46.580765 13.981814,38.131882 
	C15.621573,38.439953 17.112398,38.720047 19.027744,39.001602 
z"/>
</svg>